<svg width="412" height="128" viewBox="0 0 412 128" fill="none" xmlns="http://www.w3.org/2000/svg">
<path d="M172.344 33.048C171.576 32.664 170.456 32.472 168.984 32.472C167.576 32.472 166.616 32.92 166.104 33.816C165.592 34.648 165.176 36.152 164.856 38.328L164.472 41.016H170.616L169.56 47.544H163.608L157.56 90.072H148.632L154.68 47.544H151.032L151.896 41.016H155.448L156.024 37.08C156.6 32.92 157.72 29.944 159.384 28.152C161.112 26.296 163.256 25.368 165.816 25.368C169.144 25.368 171.704 25.816 173.496 26.712C173.24 28.632 172.856 30.744 172.344 33.048ZM185.193 75H176.265L181.065 41.016H188.937L188.649 45.528H188.745C189.705 43.992 190.921 42.712 192.393 41.688C193.865 40.664 195.145 40.152 196.233 40.152C197.321 40.152 198.025 40.248 198.345 40.44C198.729 40.568 199.081 40.696 199.401 40.824L197.577 48.6C197.193 48.536 196.681 48.408 196.041 48.216C195.465 48.024 194.793 47.928 194.025 47.928C193.257 47.928 192.457 48.184 191.625 48.696C190.793 49.208 189.737 50.04 188.457 51.192L185.193 75ZM213.519 25.176C214.991 25.176 216.111 25.688 216.879 26.712C217.711 27.736 217.999 29.048 217.743 30.648C217.551 32.184 216.911 33.464 215.823 34.488C214.735 35.448 213.455 35.928 211.983 35.928C210.575 35.928 209.455 35.448 208.623 34.488C207.791 33.464 207.471 32.184 207.663 30.648C207.983 29.048 208.687 27.736 209.775 26.712C210.863 25.688 212.111 25.176 213.519 25.176ZM210.927 75H201.999L206.607 41.592L215.823 40.344L210.927 75ZM241.202 41.016L240.434 47.544H233.042L230.738 63.864C230.482 65.336 230.482 66.424 230.738 67.128C230.994 67.832 231.634 68.184 232.658 68.184C233.746 68.184 234.674 68.056 235.442 67.8C236.21 67.48 236.722 67.288 236.978 67.224V73.56C236.722 73.624 236.338 73.784 235.826 74.04C235.314 74.296 234.738 74.552 234.098 74.808C232.498 75.512 230.706 75.864 228.722 75.864C225.65 75.864 223.57 75.064 222.482 73.464C221.394 71.8 221.106 69.016 221.618 65.112L224.21 47.544H220.562L221.426 41.016H225.074L226.226 32.856L235.346 31.416L233.906 41.016H241.202ZM269.64 46.584L254.376 68.184H266.76L265.992 75H243.624L244.392 69.336L259.464 47.832H248.232L249.192 41.016H270.504L269.64 46.584ZM296.708 48.216C294.596 47.512 292.804 47.16 291.332 47.16C289.092 47.16 287.332 48.056 286.052 49.848C284.772 51.576 283.844 54.392 283.268 58.296C282.756 62.136 282.916 64.856 283.748 66.456C284.644 67.992 285.892 68.76 287.492 68.76C289.156 68.76 290.596 68.536 291.812 68.088C293.028 67.576 293.86 67.256 294.308 67.128L295.556 72.696C292.036 74.808 288.676 75.864 285.476 75.864C276.26 75.864 272.452 70.072 274.052 58.488C275.652 46.328 281.316 40.248 291.044 40.248C293.796 40.248 296.356 40.696 298.724 41.592L296.708 48.216ZM314.772 69.336C316.692 69.336 318.196 68.44 319.284 66.648C320.436 64.856 321.268 61.976 321.78 58.008C322.356 53.976 322.324 51.096 321.684 49.368C321.044 47.64 319.796 46.776 317.94 46.776C316.084 46.776 314.612 47.64 313.524 49.368C312.436 51.096 311.604 53.976 311.028 58.008C310.516 62.04 310.548 64.952 311.124 66.744C311.7 68.472 312.916 69.336 314.772 69.336ZM331.188 49.848C331.572 52.088 331.508 54.808 330.996 58.008C330.548 61.208 329.812 63.928 328.788 66.168C327.828 68.408 326.612 70.264 325.14 71.736C322.388 74.488 318.644 75.864 313.908 75.864C306.868 75.864 302.804 72.632 301.716 66.168C301.332 63.928 301.396 61.176 301.908 57.912C302.612 51.896 304.564 47.384 307.764 44.376C310.644 41.624 314.324 40.248 318.804 40.248C325.972 40.248 330.1 43.448 331.188 49.848ZM345.285 25.176C346.757 25.176 347.877 25.688 348.645 26.712C349.477 27.736 349.765 29.048 349.509 30.648C349.317 32.184 348.677 33.464 347.589 34.488C346.501 35.448 345.221 35.928 343.749 35.928C342.341 35.928 341.221 35.448 340.389 34.488C339.557 33.464 339.237 32.184 339.429 30.648C339.749 29.048 340.453 27.736 341.541 26.712C342.629 25.688 343.877 25.176 345.285 25.176ZM342.693 75H333.765L338.373 41.592L347.589 40.344L342.693 75ZM357.127 41.016H364.999L364.615 45.336H364.807C365.127 45.144 365.575 44.76 366.151 44.184C366.791 43.608 367.591 43.032 368.551 42.456C370.919 40.984 373.255 40.248 375.559 40.248C378.759 40.248 380.871 41.208 381.895 43.128C382.919 45.048 383.143 48.024 382.567 52.056L379.303 75H370.567L373.351 54.264C373.671 51.832 373.639 50.2 373.255 49.368C372.871 48.472 372.007 48.024 370.663 48.024C369.511 48.024 368.455 48.376 367.495 49.08C365.703 50.488 364.711 51.384 364.519 51.768L361.255 75H352.327L357.127 41.016ZM387.915 67.224C388.107 67.288 388.459 67.448 388.971 67.704C389.483 67.96 390.091 68.216 390.795 68.472C392.587 69.048 394.091 69.336 395.307 69.336C396.523 69.336 397.483 69.144 398.187 68.76C398.955 68.312 399.403 67.576 399.531 66.552C399.723 65.464 399.563 64.568 399.051 63.864C398.539 63.096 397.867 62.36 397.035 61.656C396.267 60.952 395.403 60.248 394.443 59.544C393.483 58.776 392.619 57.912 391.851 56.952C390.059 54.84 389.355 52.376 389.739 49.56C390.123 46.744 391.403 44.504 393.579 42.84C395.819 41.112 398.795 40.248 402.507 40.248C405.387 40.248 408.171 40.696 410.859 41.592L409.515 48.12C409.003 48.056 408.107 47.832 406.827 47.448C405.611 47.064 404.299 46.872 402.891 46.872C400.203 46.872 398.699 47.768 398.379 49.56C398.251 50.392 398.443 51.16 398.955 51.864C399.531 52.504 400.235 53.176 401.067 53.88C401.899 54.52 402.827 55.224 403.851 55.992C404.875 56.696 405.803 57.496 406.635 58.392C408.555 60.44 409.291 62.872 408.843 65.688C408.587 68.504 407.371 70.904 405.195 72.888C402.891 74.872 399.755 75.864 395.787 75.864C393.163 75.864 391.179 75.608 389.835 75.096C387.531 74.264 386.091 73.624 385.515 73.176L387.915 67.224Z" fill="white"/>
<mask id="mask0_11_371" style="mask-type:luminance" maskUnits="userSpaceOnUse" x="0" y="0" width="120" height="120">
<path d="M0 0H120V119.679H0V0Z" fill="white"/>
</mask>
<g mask="url(#mask0_11_371)">
<path d="M14.7968 21.4C13.5862 22.8321 12.4457 24.3159 11.3716 25.8587C10.3012 27.3978 9.30468 28.9886 8.38563 30.6237C7.4629 32.2588 6.62136 33.9345 5.85734 35.6507C5.097 37.367 4.41418 39.1129 3.81624 40.8956C3.21831 42.6746 2.70896 44.4795 2.28081 46.3102C1.85266 48.1372 1.51309 49.9827 1.26211 51.8429C1.00743 53.7069 0.845033 55.5745 0.767523 57.4532C0.693704 59.3282 0.704777 61.2069 0.808124 63.0819C0.91147 64.9569 1.09971 66.8245 1.37653 68.681C1.65704 70.5413 2.02244 72.3793 2.47274 74.2027C2.92673 76.026 3.46191 77.8235 4.08568 79.5951C4.70945 81.3668 5.41073 83.1052 6.20059 84.8104C6.98676 86.5157 7.85045 88.1803 8.79533 89.8043C9.73652 91.4246 10.7552 93.0007 11.8477 94.525C12.9403 96.0494 14.1029 97.5221 15.3357 98.9357C16.5685 100.353 17.864 101.704 19.2222 102.996C20.5842 104.288 22.0015 105.513 23.4742 106.668C24.9506 107.827 26.4786 108.912 28.0547 109.924C29.6344 110.935 31.2547 111.869 32.923 112.725C34.5876 113.585 36.2929 114.36 38.0313 115.054C39.7734 115.752 41.5414 116.361 43.3389 116.888C45.1364 117.416 46.9523 117.855 48.7941 118.21C50.6322 118.564 52.485 118.83 54.349 119.007C56.2129 119.184 58.0805 119.273 59.9555 119.273C61.8268 119.273 63.6944 119.184 65.5584 119.007C67.4223 118.83 69.2751 118.564 71.1132 118.21C72.955 117.855 74.771 117.416 76.5684 116.888C78.3659 116.361 80.1376 115.752 81.876 115.054C83.6145 114.36 85.3197 113.585 86.9843 112.725C88.6526 111.869 90.2729 110.935 91.8526 109.924C93.4287 108.912 94.9567 107.827 96.4331 106.668C97.9058 105.513 99.3231 104.288 100.685 102.996C102.043 101.704 103.339 100.353 104.572 98.9357C105.804 97.5221 106.967 96.0494 108.06 94.525C109.152 93.0007 110.171 91.4246 111.112 89.8043C112.057 88.1803 112.921 86.5157 113.71 84.8104C114.497 83.1052 115.202 81.3668 115.822 79.5951C116.445 77.8235 116.981 76.026 117.435 74.2027C117.885 72.3793 118.25 70.5413 118.531 68.681C118.808 66.8245 118.996 64.9569 119.099 63.0819C119.203 61.2069 119.214 59.3282 119.14 57.4532C119.062 55.5745 118.9 53.7069 118.645 51.8429C118.394 49.9827 118.055 48.1372 117.627 46.3102C117.198 44.4795 116.689 42.6746 116.091 40.8956C115.493 39.1129 114.814 37.367 114.05 35.6507C113.286 33.9345 112.444 32.2588 111.522 30.6237C110.603 28.9886 109.606 27.3978 108.536 25.8587C107.462 24.3159 106.321 22.8321 105.111 21.4C104.413 20.5843 103.697 19.7908 102.959 19.012C102.224 18.2369 101.464 17.4802 100.685 16.7457C99.91 16.0112 99.109 15.2989 98.2933 14.6087C97.4776 13.9148 96.6435 13.2467 95.7909 12.6008C94.9383 11.9549 94.0672 11.3311 93.1814 10.7295C92.2956 10.1316 91.395 9.55577 90.4759 9.00582C89.5606 8.45587 88.6305 7.93175 87.6856 7.42978C86.737 6.92782 85.781 6.45537 84.8103 6.00508C83.8396 5.55847 82.8578 5.13771 81.865 4.74278C80.8684 4.34415 79.8682 3.97875 78.8531 3.63549C77.8381 3.29593 76.8194 2.9822 75.7897 2.69799C74.7562 2.4101 73.719 2.15542 72.6782 1.92289C71.6337 1.69405 70.5817 1.49474 69.5298 1.32127C68.4742 1.1478 67.4149 1.00385 66.3519 0.889429C65.2889 0.771319 64.2259 0.686427 63.1592 0.627372C62.0889 0.572008 61.0222 0.54248 59.9555 0.54248C58.8851 0.54248 57.8185 0.572008 56.7481 0.627372C55.6814 0.686427 54.6184 0.771319 53.5554 0.889429C52.4924 1.00385 51.4331 1.1478 50.3775 1.32127C49.3256 1.49474 48.2737 1.69405 47.2291 1.92289C46.1883 2.15542 45.1511 2.4101 44.1214 2.69799C43.0879 2.9822 42.0692 3.29593 41.0542 3.63549C40.0429 3.97875 39.0389 4.34415 38.0461 4.74278C37.0495 5.13771 36.0677 5.55847 35.097 6.00508C34.1263 6.45537 33.1703 6.92782 32.2254 7.42978C31.2769 7.93175 30.3468 8.45587 29.4314 9.00582C28.5124 9.55577 27.6118 10.1316 26.7259 10.7295C25.8401 11.3311 24.969 11.9549 24.1164 12.6008C23.2638 13.2467 22.4297 13.9148 21.614 14.6087C20.7983 15.2989 20.001 16.0112 19.2222 16.7457C18.4435 17.4802 17.6868 18.2369 16.9486 19.012C16.2104 19.7908 15.4944 20.5843 14.7968 21.4ZM90.6752 90.7233C89.7267 91.6719 88.7375 92.5799 87.7077 93.4362C86.6779 94.2962 85.6076 95.1045 84.504 95.8648C83.3967 96.6252 82.2599 97.3338 81.0862 97.9871C79.9161 98.6404 78.7166 99.2384 77.4912 99.7809C76.2658 100.323 75.0146 100.811 73.7449 101.235C72.4752 101.663 71.1871 102.029 69.8805 102.339C68.5776 102.645 67.2599 102.892 65.9311 103.077C64.6024 103.261 63.27 103.383 61.9302 103.446C60.594 103.505 59.2542 103.505 57.9144 103.442C56.5746 103.38 55.2422 103.254 53.9171 103.066C52.5884 102.881 51.2707 102.63 49.9678 102.324C48.6649 102.014 47.3768 101.645 46.1071 101.217C44.8337 100.789 43.5862 100.301 42.3608 99.7551C41.1354 99.2125 39.9395 98.6109 38.7695 97.9539C37.5995 97.3006 36.459 96.5919 35.3554 95.8279C34.2518 95.0676 33.1851 94.2556 32.1553 93.3956C31.753 93.0413 31.3027 92.7718 30.8007 92.591C30.2988 92.4064 29.782 92.3178 29.2469 92.3289C28.7154 92.34 28.2023 92.447 27.7077 92.6537C27.2131 92.8567 26.7739 93.1446 26.3901 93.5137C26.2092 93.6945 26.0136 93.857 25.8032 93.9972C25.5891 94.1375 25.3677 94.2556 25.1314 94.3478C24.8952 94.4438 24.6516 94.5139 24.4006 94.5545C24.1497 94.5988 23.8987 94.6173 23.644 94.6099C23.3893 94.6025 23.142 94.5656 22.8947 94.5066C22.6474 94.4475 22.4075 94.3626 22.1787 94.2519C21.9499 94.1412 21.7358 94.012 21.5328 93.857C21.3298 93.7019 21.1452 93.5285 20.9791 93.3365C19.9383 92.1148 18.9565 90.8451 18.0338 89.5312C17.111 88.2172 16.251 86.8626 15.4575 85.4637C14.6602 84.0686 13.9331 82.6402 13.2688 81.1749C12.6081 79.7133 12.0138 78.2221 11.4934 76.7014C10.9693 75.1808 10.519 73.6416 10.1388 72.0804C9.75866 70.5154 9.45232 68.9394 9.22348 67.3486C8.99095 65.7578 8.83224 64.1596 8.75104 62.554C8.66614 60.9485 8.65876 59.3429 8.7252 57.7374C8.79164 56.1318 8.93558 54.5299 9.14966 52.9391C9.36742 51.3446 9.65901 49.7649 10.0207 48.2C10.3861 46.635 10.8217 45.0885 11.331 43.5641C11.8367 42.0398 12.4161 40.5449 13.0658 39.0723C13.7117 37.6033 14.4277 36.1675 15.2102 34.7612C15.9927 33.3587 16.8379 31.9967 17.7459 30.6717C18.6575 29.3466 19.6246 28.0695 20.6543 26.8368C21.6841 25.604 22.7656 24.4229 23.9061 23.2935C25.0429 22.1603 26.235 21.0863 27.4715 20.0676C28.7117 19.0489 29.9961 18.0892 31.3249 17.1923C32.6536 16.2917 34.0229 15.4576 35.4292 14.6862C36.8354 13.9185 38.2749 13.2172 39.7476 12.5823C41.2203 11.9475 42.7188 11.3828 44.2432 10.8882C45.7675 10.3936 47.314 9.97284 48.879 9.62221C50.4439 9.27526 52.02 8.99843 53.6108 8.79912C55.2016 8.59981 56.7961 8.47432 58.3979 8.42265C59.9998 8.37098 61.6017 8.39681 63.1998 8.49647C64.798 8.59612 66.3925 8.7696 67.9722 9.02058C69.5557 9.26787 71.1243 9.59268 72.6782 9.98761C74.2321 10.3862 75.7638 10.8513 77.2734 11.3939C78.783 11.9327 80.2631 12.5454 81.7136 13.2246C83.1679 13.9037 84.5852 14.6493 85.9656 15.4613C87.3497 16.2733 88.6932 17.1517 89.9924 18.0892C91.2953 19.0267 92.5465 20.027 93.7572 21.0826C93.9233 21.2265 94.0709 21.3852 94.2038 21.5587C94.3403 21.7322 94.4548 21.9167 94.547 22.1161C94.643 22.3117 94.7168 22.5184 94.7722 22.7324C94.8239 22.9428 94.8534 23.1606 94.8608 23.382C94.8718 23.5998 94.8571 23.8176 94.8202 24.0353C94.7833 24.2494 94.7242 24.4598 94.6467 24.6665C94.5655 24.8695 94.4658 25.0651 94.344 25.2497C94.2259 25.4305 94.0894 25.6003 93.9343 25.7553L93.521 26.1724C93.1482 26.5489 92.8603 26.9844 92.6499 27.4716C92.4432 27.9588 92.3288 28.4645 92.3103 28.996C92.2919 29.5275 92.3694 30.0405 92.5465 30.5425C92.72 31.0408 92.9784 31.4947 93.3216 31.8971C94.1816 32.9305 94.9936 34.0009 95.754 35.1082C96.5143 36.2192 97.223 37.3597 97.88 38.5334C98.5369 39.7071 99.1349 40.9103 99.6811 42.1431C100.227 43.3722 100.711 44.6234 101.143 45.9005C101.571 47.1776 101.94 48.4694 102.25 49.7797C102.56 51.09 102.807 52.4113 102.996 53.7438C103.184 55.0762 103.309 56.416 103.372 57.7595C103.435 59.1067 103.435 60.4502 103.376 61.7937C103.317 63.1409 103.195 64.4807 103.01 65.8132C102.826 67.1456 102.579 68.4669 102.272 69.7772C101.966 71.0912 101.6 72.383 101.172 73.6601C100.748 74.9372 100.264 76.1921 99.7217 77.4212C99.1792 78.6539 98.5812 79.8572 97.9316 81.0346C97.2783 82.212 96.5697 83.3525 95.813 84.4635C95.0527 85.5745 94.2444 86.6485 93.3881 87.682C92.5281 88.7192 91.6275 89.712 90.6752 90.6643V90.7233Z" fill="white"/>
</g>
<path fill-rule="evenodd" clip-rule="evenodd" d="M79.7116 29.0088C82.3735 30.1876 82.6016 34.3895 81.0426 36.8232C79.0272 39.9604 71.9352 39.0478 72.9999 32.8304C72.7147 32.7354 72.7528 32.6213 72.3915 32.9445C62.7708 50.1705 63.018 69.5641 54.8803 83.1016C53.1881 85.4402 51.7051 86.543 49.5756 87.7598C47.4461 88.9767 45.906 89.7562 42.4266 89.9273C38.9472 90.0794 37.5592 88.5774 37.5592 88.5774C33.5854 86.0106 35.886 81.3904 38.1106 80.4587C40.3351 79.5271 41.7801 79.9073 42.959 80.4397C44.1568 80.9721 45.4877 83.0825 45.4877 83.0825C46.8757 79.5271 47.4651 77.5877 48.9672 71.8267C55.0514 46.7291 57.7893 24.8068 79.7116 29.0088V29.0088Z" fill="white"/>
<path fill-rule="evenodd" clip-rule="evenodd" d="M46.9327 54.2202H68.2086C69.9007 54.2202 71.2887 55.5892 71.2887 57.3004C71.2887 58.9925 69.9197 60.3805 68.2086 60.3805H46.9327C45.2405 60.3805 43.8525 59.0116 43.8525 57.3004C43.8716 55.6082 45.2405 54.2202 46.9327 54.2202Z" fill="white"/>
<path fill-rule="evenodd" clip-rule="evenodd" d="M49.6707 44.1814H70.9466C72.6388 44.1814 74.0267 45.5504 74.0267 47.2615C74.0267 48.9537 72.6578 50.3417 70.9466 50.3417H49.6707C47.9785 50.3417 46.5906 48.9727 46.5906 47.2615C46.6096 45.5694 47.9785 44.1814 49.6707 44.1814Z" fill="white"/>
<path d="M179.093 86.6533C179.093 86.6533 178.836 86.6622 178.32 86.68L177.867 90.2H178.453C179.662 90.2 180.356 89.5778 180.533 88.3333C180.569 87.8 180.498 87.3911 180.32 87.1067C180.142 86.8044 179.733 86.6533 179.093 86.6533ZM177.12 95.24L177.707 95.2667C178.436 95.2667 178.996 95.1333 179.387 94.8667C179.778 94.6 180.027 94.1022 180.133 93.3733C180.293 92.2533 179.707 91.6933 178.373 91.6933H178C177.876 91.6933 177.76 91.7022 177.653 91.72L177.12 95.24ZM176.16 84.8933L179.253 84.8133C180.729 84.8133 181.769 85.0444 182.373 85.5067C182.978 85.9511 183.191 86.7511 183.013 87.9067C182.907 88.6 182.676 89.1867 182.32 89.6667C181.964 90.1289 181.591 90.4756 181.2 90.7067C182.356 91.0444 182.844 91.9778 182.667 93.5067C182.471 94.7511 181.973 95.6667 181.173 96.2533C180.391 96.8222 179.218 97.1067 177.653 97.1067C176.996 97.1067 176.373 97.0889 175.787 97.0533C175.218 97.0178 174.773 97 174.453 97L176.16 84.8933ZM192.74 97H190.18L191.887 84.8933H194.447L192.74 97ZM201.121 97L202.828 84.8933H205.388L203.948 94.92H207.548L207.095 97H201.121ZM214.348 97L216.055 84.8933H218.615L217.175 94.92H220.775L220.321 97H214.348ZM227.574 97L229.281 84.8933H235.814L235.494 86.9733H231.574L231.174 89.7733H234.161L233.894 91.72H230.881L230.428 94.92H234.401L234.134 97H227.574ZM250.098 86.9733H247.645L246.232 97H243.672L245.058 86.9733H242.578L242.845 84.8933H250.418L250.098 86.9733ZM257.25 97L258.957 84.8933H265.49L265.17 86.9733H261.25L260.85 89.7733H263.837L263.57 91.72H260.557L260.104 94.92H264.077L263.81 97H257.25ZM275.587 90.52L276.707 90.5733C277.721 90.5733 278.325 89.9422 278.521 88.68C278.734 87.3822 278.272 86.7333 277.134 86.7333C276.867 86.7333 276.521 86.7511 276.094 86.7867L275.587 90.52ZM276.254 92.4133L275.321 92.3867L274.681 97H272.254L273.961 84.8933C273.961 84.8933 275.045 84.8667 277.214 84.8133C278.761 84.8133 279.827 85.1067 280.414 85.6933C281.036 86.28 281.259 87.2933 281.081 88.7333C280.939 89.6933 280.627 90.4489 280.147 91C279.667 91.5333 279.143 91.8889 278.574 92.0667L280.254 97H277.534L276.254 92.4133ZM294.331 87.2667C294.206 87.5689 294.064 87.9511 293.904 88.4133C293.744 88.8756 293.566 89.3733 293.371 89.9067C293.175 90.4222 292.971 90.9644 292.757 91.5333C292.562 92.0844 292.357 92.6267 292.144 93.16H294.757C294.722 92.6267 294.677 92.0844 294.624 91.5333C294.571 90.9644 294.526 90.4222 294.491 89.9067C294.455 89.3733 294.42 88.8756 294.384 88.4133C294.349 87.9511 294.331 87.5689 294.331 87.2667ZM293.184 84.8933H296.251L297.851 97H295.157L294.917 94.8933H291.531L290.677 97H288.117L293.184 84.8933ZM321.051 95.1067C321.904 95.1067 322.562 94.7689 323.024 94.0933C323.504 93.4 323.851 92.36 324.064 90.9733C324.26 89.5156 324.206 88.4578 323.904 87.8C323.62 87.1422 323.06 86.8133 322.224 86.8133C322.224 86.8133 322.073 86.8133 321.771 86.8133C321.628 86.8133 321.486 86.8222 321.344 86.84L320.171 95.1067C320.473 95.1067 320.766 95.1067 321.051 95.1067ZM319.051 84.8933C319.051 84.8933 320.117 84.8667 322.251 84.8133C323.104 84.8133 323.842 84.9022 324.464 85.08C325.104 85.24 325.62 85.5511 326.011 86.0133C326.757 86.9378 326.98 88.5911 326.677 90.9733C326.233 94.3333 324.944 96.2889 322.811 96.84C322.135 97.0178 321.406 97.1067 320.624 97.1067C319.842 97.1067 319.175 97.0889 318.624 97.0533C318.073 97.0178 317.646 97 317.344 97L319.051 84.8933ZM336.431 97H333.871L335.578 84.8933H338.138L336.431 97ZM352.893 96.7067C352.448 96.8489 351.844 96.9822 351.079 97.1067C350.315 97.2311 349.719 97.2933 349.293 97.2933C347.639 97.2933 346.475 96.7778 345.799 95.7467C345.142 94.7156 344.964 93.1244 345.266 90.9733C345.568 88.8044 346.199 87.2133 347.159 86.2C348.119 85.1867 349.426 84.68 351.079 84.68C351.577 84.68 352.102 84.7333 352.653 84.84C353.204 84.9467 353.568 85.0356 353.746 85.1067C353.924 85.1778 354.048 85.2222 354.119 85.24L353.506 87.16C353.186 87 352.777 86.8844 352.279 86.8133C351.782 86.7422 351.435 86.7067 351.239 86.7067C350.173 86.7067 349.399 87.0622 348.919 87.7733C348.439 88.4667 348.11 89.5333 347.933 90.9733C347.719 92.4489 347.755 93.5156 348.039 94.1733C348.359 94.8844 349.017 95.24 350.013 95.24H350.546L350.999 92.0133H349.719L350.013 89.9867H353.826L352.893 96.7067ZM363.314 97H360.754L362.461 84.8933H365.021L363.314 97ZM379.216 86.9733H376.762L375.349 97H372.789L374.176 86.9733H371.696L371.962 84.8933H379.536L379.216 86.9733ZM392.581 87.2667C392.456 87.5689 392.314 87.9511 392.154 88.4133C391.994 88.8756 391.816 89.3733 391.621 89.9067C391.425 90.4222 391.221 90.9644 391.007 91.5333C390.812 92.0844 390.607 92.6267 390.394 93.16H393.007C392.972 92.6267 392.927 92.0844 392.874 91.5333C392.821 90.9644 392.776 90.4222 392.741 89.9067C392.705 89.3733 392.67 88.8756 392.634 88.4133C392.599 87.9511 392.581 87.5689 392.581 87.2667ZM391.434 84.8933H394.501L396.101 97H393.407L393.167 94.8933H389.781L388.927 97H386.367L391.434 84.8933ZM402.973 97L404.68 84.8933H407.24L405.8 94.92H409.4L408.946 97H402.973Z" fill="white"/>
</svg>
